<svg width="192" height="64" viewBox="0 0 192 64" fill="none" xmlns="http://www.w3.org/2000/svg">
<path d="M0.0049551 37.162C0.334955 20.073 18.227 7.66201 37.985 6.00301C42.796 5.60301 50.935 5.48901 56.96 7.37401L51.264 17.89C46.8857 16.891 42.3876 16.5207 37.905 16.79C17.747 17.492 5.06395 29.317 4.78195 41.272C4.68216 44.5058 5.46778 47.7054 7.05394 50.5253C8.6401 53.3451 10.9665 55.678 13.782 57.272L13.382 57.611C4.55395 53.214 -0.175045 46.298 0.0049551 37.162Z" fill="black"/>
<path d="M9.38552 41.1739C11.3855 31.1949 22.4985 23.5739 39.9635 24.4839C42.5216 24.5834 45.0678 24.8843 47.5785 25.3839L42.5295 34.6929C40.9585 34.4769 38.5045 34.0399 36.3995 33.9269C22.6395 33.2069 14.1735 38.8999 12.7695 46.1589C12.4068 48.2631 12.6715 50.4276 13.5308 52.3823C14.3901 54.3371 15.8059 55.9955 17.6015 57.1509L17.2015 57.4579C10.3725 53.6799 8.16052 47.2739 9.38552 41.1739Z" fill="black"/>
<path d="M17.6304 46.226C20.9734 40.605 31.0464 38.785 40.0404 40.97L37.4034 45.803C30.2534 44.158 21.9764 45.275 19.6034 49.397C18.3134 51.64 19.0334 54.722 20.4894 56.897L20.2224 57.166C16.8614 54.159 15.6384 49.578 17.6304 46.226Z" fill="black"/>
<path d="M68.3164 0H66.7324V63.371H68.3164V0Z" fill="black"/>
<path d="M118.028 50.6991H127.047L109.606 2.8811H100.484L110.609 31.4521L118.028 50.6991ZM81.1367 50.6991H89.9587L100.384 25.2361L96.0727 13.8081L81.1367 50.6991ZM177.154 50.6991L164.222 32.6541C165.819 32.179 167.364 31.5424 168.833 30.7541C170.194 29.9139 171.414 28.8636 172.447 27.6421C173.479 26.438 174.263 25.0411 174.753 23.5321C175.376 21.7966 175.681 19.9629 175.653 18.1191C175.687 15.954 175.279 13.8046 174.453 11.8031C173.646 9.99221 172.448 8.38286 170.944 7.0911C169.293 5.72282 167.384 4.69995 165.33 4.0831C162.928 3.33949 160.426 2.96852 157.912 2.9831H136.653V10.6021H157.204C160.345 10.6021 162.784 11.2688 164.522 12.6021C165.407 13.3222 166.106 14.2445 166.559 15.2914C167.013 16.3383 167.208 17.4789 167.129 18.6171C167.18 19.7227 166.971 20.8249 166.518 21.8348C166.065 22.8447 165.381 23.734 164.522 24.4311C162.458 26.0079 159.896 26.7908 157.304 26.6371H136.653V50.6971H144.974V34.0571H155.5L167.229 50.6991H177.154Z" fill="#42B546"/>
<path d="M84.6878 60.32L84.3558 59.378H82.4368L82.1048 60.32H81.1348L82.8168 55.753H83.9768L85.6588 60.32H84.6888H84.6878ZM82.7148 58.585H84.0778L83.3978 56.647L82.7148 58.585ZM94.5768 56.585H92.8838V57.622H94.3838V58.447H92.8838V59.481H94.5778V60.319H91.9288V55.753H94.5778V56.587L94.5768 56.585ZM103.114 60.385C102.806 60.3979 102.498 60.346 102.212 60.2325C101.925 60.119 101.665 59.9466 101.45 59.7263C101.234 59.5061 101.067 59.2429 100.959 58.954C100.852 58.665 100.806 58.3567 100.826 58.049C100.827 57.5397 100.993 57.0445 101.298 56.6369C101.603 56.2294 102.032 55.9314 102.52 55.7872C103.009 55.643 103.531 55.6604 104.008 55.8367C104.486 56.0131 104.894 56.339 105.172 56.766L104.346 57.202C104.237 56.9851 104.068 56.8043 103.859 56.6815C103.649 56.5587 103.409 56.4991 103.167 56.51C102.973 56.5055 102.78 56.5426 102.602 56.6187C102.423 56.6948 102.263 56.8082 102.132 56.9513C102.001 57.0944 101.902 57.2639 101.842 57.4484C101.781 57.6329 101.761 57.8281 101.783 58.021C101.762 58.2178 101.783 58.4169 101.845 58.6048C101.907 58.7927 102.009 58.9652 102.143 59.1104C102.278 59.2557 102.442 59.3705 102.624 59.447C102.807 59.5235 103.004 59.56 103.202 59.554C103.49 59.5754 103.776 59.4902 104.005 59.3147C104.234 59.1392 104.391 58.8856 104.446 58.602H103.2V57.84H105.346V60.321H104.6V59.689C104.432 59.9226 104.208 60.1095 103.948 60.2321C103.688 60.3546 103.401 60.4086 103.114 60.389V60.385ZM111.914 60.322V55.753H112.862V60.32L111.914 60.322ZM121.143 60.385C120.72 60.4379 120.292 60.3311 119.944 60.0855C119.595 59.8399 119.351 59.4732 119.259 59.057L120.239 58.833C120.261 59.0611 120.372 59.2711 120.549 59.417C120.725 59.5629 120.953 59.6327 121.181 59.611C121.567 59.611 121.873 59.44 121.87 59.055C121.87 58.625 121.361 58.489 120.805 58.319C120.135 58.11 119.417 57.864 119.417 57.019C119.417 56.174 120.117 55.688 121.029 55.688C121.423 55.6379 121.822 55.7317 122.153 55.9521C122.483 56.1725 122.723 56.5048 122.829 56.888L121.912 57.116C121.887 56.9211 121.788 56.7436 121.634 56.6214C121.48 56.4991 121.285 56.4419 121.09 56.462C120.708 56.462 120.382 56.62 120.382 56.996C120.382 57.347 120.831 57.464 121.349 57.619C122.038 57.828 122.849 58.093 122.849 59.003C122.849 59.973 122.037 60.381 121.142 60.381L121.143 60.385ZM138.989 60.322L137.801 58.312H137.526V60.322H136.578V55.753H138.234C138.424 55.7276 138.617 55.7445 138.8 55.8026C138.983 55.8607 139.15 55.9584 139.291 56.0889C139.431 56.2193 139.541 56.3793 139.612 56.5572C139.684 56.7351 139.715 56.9266 139.704 57.118C139.717 57.3955 139.624 57.6678 139.445 57.88C139.266 58.0922 139.013 58.2287 138.737 58.262L140.112 60.32H138.989V60.322ZM137.526 56.542V57.632H138.085C138.591 57.632 138.796 57.417 138.796 57.088C138.796 56.759 138.591 56.541 138.085 56.541H137.526V56.542ZM146.392 60.322V55.753H147.34V60.32L146.392 60.322ZM154.104 60.322V55.753H155.757C156.058 55.7294 156.36 55.7732 156.643 55.881C156.925 55.9889 157.179 56.1583 157.388 56.3767C157.596 56.5952 157.754 56.8574 157.848 57.1442C157.943 57.431 157.972 57.7353 157.935 58.035C157.973 58.3348 157.943 58.6394 157.849 58.9265C157.754 59.2136 157.597 59.4761 157.389 59.6949C157.18 59.9137 156.925 60.0833 156.643 60.1914C156.361 60.2995 156.058 60.3434 155.757 60.32H154.104V60.322ZM155.052 59.484H155.709C156.55 59.484 156.935 58.959 156.935 58.036C156.935 57.113 156.549 56.588 155.709 56.588H155.052V59.488V59.484ZM167.052 56.584H165.363V57.621H166.863V58.446H165.363V59.48H167.057V60.318H164.408V55.753H167.057V56.587L167.052 56.584ZM176.025 60.317L174.846 58.31H174.566V60.32H173.618V55.753H175.274C175.464 55.7276 175.657 55.7445 175.84 55.8026C176.023 55.8607 176.19 55.9584 176.331 56.0889C176.471 56.2193 176.581 56.3793 176.652 56.5572C176.724 56.7351 176.755 56.9266 176.744 57.118C176.757 57.3955 176.664 57.6678 176.485 57.88C176.306 58.0922 176.053 58.2287 175.777 58.262L177.152 60.32H176.03L176.025 60.317ZM174.562 56.537V57.627H175.121C175.627 57.627 175.832 57.412 175.832 57.083C175.832 56.754 175.627 56.536 175.121 56.536H174.562V56.537Z" fill="black"/>
</svg>
